<?xml version="1.0" encoding="UTF-8" standalone="no"?>
<svg
   xmlns:dc="http://purl.org/dc/elements/1.1/"
   xmlns:cc="http://creativecommons.org/ns#"
   xmlns:rdf="http://www.w3.org/1999/02/22-rdf-syntax-ns#"
   xmlns:svg="http://www.w3.org/2000/svg"
   xmlns="http://www.w3.org/2000/svg"
   xmlns:xlink="http://www.w3.org/1999/xlink"
   xmlns:sodipodi="http://sodipodi.sourceforge.net/DTD/sodipodi-0.dtd"
   xmlns:inkscape="http://www.inkscape.org/namespaces/inkscape"
   width="24"
   height="24"
   viewBox="0 0 24 24"
   version="1.1"
   id="svg6"
   sodipodi:docname="baseline-perm_phone_msg-24px.svg"
   inkscape:version="0.92.3 (2405546, 2018-03-11)">
  <metadata
     id="metadata12">
    <rdf:RDF>
      <cc:Work
         rdf:about="">
        <dc:format>image/svg+xml</dc:format>
        <dc:type
           rdf:resource="http://purl.org/dc/dcmitype/StillImage" />
      </cc:Work>
    </rdf:RDF>
  </metadata>
  <defs
     id="defs10">
    <clipPath
       clipPathUnits="userSpaceOnUse"
       id="clipPath827">
      <use
         x="0"
         y="0"
         xlink:href="#g823"
         id="use829"
         width="100%"
         height="100%" />
    </clipPath>
  </defs>
  <sodipodi:namedview
     pagecolor="#ffffff"
     bordercolor="#666666"
     borderopacity="1"
     objecttolerance="10"
     gridtolerance="10"
     guidetolerance="10"
     inkscape:pageopacity="0"
     inkscape:pageshadow="2"
     inkscape:window-width="1920"
     inkscape:window-height="1017"
     id="namedview8"
     showgrid="false"
     inkscape:zoom="9.8333333"
     inkscape:cx="-4.9322034"
     inkscape:cy="12"
     inkscape:window-x="1272"
     inkscape:window-y="-8"
     inkscape:window-maximized="1"
     inkscape:current-layer="g823" />
  <path
     d="M0 0h24v24H0z"
     fill="none"
     id="path2" />
  <g
     style="fill:#303030;fill-opacity:1"
     id="g823"
     inkscape:label="Clip">
    <path
       style="fill:#ffffff;fill-opacity:1"
       d="m 20,15.5 c -1.25,0 -2.45,-0.2 -3.57,-0.57 -0.35,-0.11 -0.74,-0.03 -1.02,0.24 l -2.2,2.2 C 10.38,15.93 8.06,13.62 6.62,10.79 L 8.82,8.58 C 9.1,8.31 9.18,7.92 9.07,7.57 8.7,6.45 8.5,5.25 8.5,4 8.5,3.45 8.05,3 7.5,3 H 4 C 3.45,3 3,3.45 3,4 c 0,9.39 7.61,17 17,17 0.55,0 1,-0.45 1,-1 v -3.5 c 0,-0.55 -0.45,-1 -1,-1 z"
       id="path853" />
    <path
       style="fill:#ffffff;fill-opacity:1"
       d="m 12,3 v 10 l 3,-3 h 6 V 3 Z"
       id="path4" />
  </g>
</svg>
